{"title":"Super 8(2011)MP-4[DaScubaDude]","uid":12452295,"size":1367353851,"categoryP":"video","categoryS":"movies","magnet":"?xt=urn:btih:8ae2bcb1b4cc238574b35c27132dae5cc1bd5c0d&amp;dn=Super+8%282011%29MP-4%5BDaScubaDude%5D&amp;tr=udp%3A%2F%2Ftracker.openbittorrent.com%3A80&amp;tr=udp%3A%2F%2Fopen.demonii.com%3A1337&amp;tr=udp%3A%2F%2Ftracker.coppersurfer.tk%3A6969&amp;tr=udp%3A%2F%2Fexodus.desync.com%3A6969","seeders":1,"leechers":0,"uploader":"dascuba","files":1,"time":1442702404,"description":"Super 8 (2011)\nPG-13  |  112 min  |  Mystery, Sci-Fi, Thriller  |  10 June 2011 (USA)\n7.1 Your rating:   -/10   Ratings: 7.1/10 from 268,457 users   Metascore: 72/100 \nReviews: 835 user | 529 critic | 41 from Metacritic.com\nDuring the summer of 1979, a group of friends witness a train crash and investigate subsequent unexplained events in their small town.\n\nDirector: J.J. Abrams\nWriter: J.J. Abrams\nStars: Elle Fanning, AJ Michalka, Kyle Chandler \n\nGeneral\nComplete name                            : C:Super 8SUPER_8_Title33.mp4\nFormat                                   : MPEG-4\nFormat profile                           : Base Media\nCodec ID                                 : isom\nFile size                                : 1.27 GiB\nDuration                                 : 1h 51mn\nOverall bit rate mode                    : Constant\nOverall bit rate                         : 1 632 Kbps\nMovie name                               : SUPER_8\nGenre                                    : Science_Fiction\nWriting application                      : Lavf54.6.100\n\nVideo\nID                                       : 1\nFormat                                   : MPEG-4 Visual\nFormat settings, BVOP                    : No\nFormat settings, QPel                    : No\nFormat settings, GMC                     : No warppoints\nFormat settings, Matrix                  : Default (H.263)\nCodec ID                                 : 20\nDuration                                 : 1h 51mn\nBit rate mode                            : Constant\nBit rate                                 : 1 498 Kbps\nWidth                                    : 720 pixels\nHeight                                   : 404 pixels\nDisplay aspect ratio                     : 16:9\nFrame rate mode                          : Constant\nFrame rate                               : 29.970 fps\nColor space                              : YUV\nChroma subsampling                       : 4:2:0\nBit depth                                : 8 bits\nScan type                                : Progressive\nCompression mode                         : Lossy\nBits/(Pixel*Frame)                       : 0.172\nStream size                              : 1.17 GiB (92%)\nWriting library                          : Lavc54.23.100\n\nAudio\nID                                       : 2\nFormat                                   : MPEG Audio\nFormat version                           : Version 1\nFormat profile                           : Layer 3\nCodec ID                                 : 6B\nDuration                                 : 1h 51mn\nBit rate mode                            : Constant\nBit rate                                 : 128 Kbps\nChannel(s)                               : 2 channels\nSampling rate                            : 44.1 KHz\nCompression mode                         : Lossy\nStream size                              : 102 MiB (8%)\nWriting library                          : LAME3.99.5","torrent":{"xt":"urn:btih:8ae2bcb1b4cc238574b35c27132dae5cc1bd5c0d","amp;dn":"Super+8%282011%29MP-4%5BDaScubaDude%5D","amp;tr":["udp%3A%2F%2Ftracker.openbittorrent.com%3A80","udp%3A%2F%2Fopen.demonii.com%3A1337","udp%3A%2F%2Ftracker.coppersurfer.tk%3A6969","udp%3A%2F%2Fexodus.desync.com%3A6969"],"infoHash":"8ae2bcb1b4cc238574b35c27132dae5cc1bd5c0d","infoHashBuffer":{"type":"Buffer","data":[138,226,188,177,180,204,35,133,116,179,92,39,19,45,174,92,193,189,92,13]},"announce":[],"urlList":[]}}